<?xml version="1.0" encoding="UTF-8"?>
<svg id="Capa_2" data-name="Capa 2" xmlns="http://www.w3.org/2000/svg" viewBox="0 0 491.52 491.52">
  <defs>
    <style>
      .cls-1 {
        fill: #fff;
      }
    </style>
  </defs>
  <g id="Capa_1-2" data-name="Capa 1">
    <g>
      <path class="cls-1" d="M0,0h491.52v491.52H0V0ZM335.95,140.77c42.2,39.41,60.81,101.45,56.11,158.2-3.23,38.97-17.49,75.61-41.21,106.48-6.26,8.15-4.85,20.26,3.77,25.91l43.72,28.63c9.02,5.91,19.99,6.22,28.9-.23,10.06-7.29,20.55-21.64,19.57-34.37-.48-6.38-3.64-11.93-8.92-15.47l-11.79-7.92c7.77-12.88,14.44-25.64,20.03-39.38,15.75-38.7,21.92-80.92,17.79-122.54-4.32-43.56-20.04-84.94-45.61-120.35-28.05-38.84-66.95-69.28-112.9-83.62-45.85-14.31-94.81-10.6-138.19,9.85-48.6,22.9-86.67,63.17-110.14,111.35-17.47,36.42-25.77,76.71-24.22,117.07,1.75,45.51,15.22,89.41,39.73,127.85l-13.13,9.2c-6.96,5.9-8.71,15.15-5.94,23.75,3.85,9.86,10.3,18.44,18.85,24.61s19.69,6.14,28.57.31l43.45-28.49c8.65-5.67,10.8-17.87,4.51-26.28-6.86-9.18-13.03-18.28-18.44-28.51-13.09-24.76-20.89-51.51-22.91-79.58-4.72-65.46,20.88-136.83,77.8-172.78,14.57-9.2,30.33-15.19,47.44-17.79,38.36-5.83,75.06,7.86,103.15,34.1ZM256.54,308.61c-2.02-17.63,3.09-34.88,18.82-43.6,6.53,10.38,15.09,18.96,25.24,25.61,5.95,3.9,11.93,6.28,19,7.26l1.64,5.7c1.47,5.12,4.1,10.17,9.11,12.47,9.21,4.24,24.77-.4,29.1-9.83,4.73-10.31,3.44-22.5-2.75-31.79l-5.99-9c-5.21-16.41-11.09-32.17-18.15-47.89-4.07-9.06-8.66-17.27-14.89-25.05l-2.25-19.38c-.88-7.57.99-14.57,2.57-22.3-4.77,3.18-8.48,6.98-12.43,10.95-.14-6.75,1.85-12.53,3.77-19.12-7.25,4.93-13.84,9.9-20.27,15.47-4.69,4.06-8.49,8.72-11.28,14.18-5-1.37-9.48-2.45-14.56-2.97-34.1-3.52-68.09,8.49-92.09,33.53l15.28-2.7c3.02-.15,5.85-.26,8.99.28-23.38,16.15-45.76,32.7-60.77,56.93-3.87,6.25-6.75,12.67-8.61,19.93,7.37-4.5,16.39-11.08,24.89-11.75-15.42,34.43-9.21,69.03,10.87,99.75h118.97s-11.92-18.88-11.92-18.88c-6.38-11.78-10.64-24.15-12.28-37.78Z"/>
      <path d="M335.95,140.77c-28.1-26.24-64.79-39.93-103.15-34.1-17.11,2.6-32.87,8.59-47.44,17.79-56.92,35.94-82.52,107.32-77.8,172.78,2.02,28.08,9.82,54.82,22.91,79.58,5.41,10.23,11.58,19.32,18.44,28.51,6.29,8.41,4.14,20.61-4.51,26.28l-43.45,28.49c-8.89,5.83-19.77,6.04-28.57-.31s-15-14.75-18.85-24.61c-2.77-8.6-1.02-17.85,5.94-23.75l13.13-9.2c-24.52-38.44-37.98-82.34-39.73-127.85-1.55-40.36,6.75-80.65,24.22-117.07,23.47-48.18,61.55-88.45,110.14-111.35,43.38-20.44,92.34-24.16,138.19-9.85,45.95,14.34,84.85,44.78,112.9,83.62,25.57,35.41,41.29,76.8,45.61,120.35,4.12,41.63-2.04,83.85-17.79,122.54-5.59,13.74-12.26,26.5-20.03,39.38l11.79,7.92c5.28,3.54,8.43,9.09,8.92,15.47.99,12.73-9.51,27.08-19.57,34.37-8.9,6.45-19.88,6.14-28.9.23l-43.72-28.63c-8.63-5.65-10.03-17.76-3.77-25.91,23.72-30.87,37.98-67.51,41.21-106.48,4.7-56.76-13.91-118.79-56.11-158.2ZM247.02,83.37l14.57,7.68-2.59-16.09,11.58-11.65-16.38-2.47-7.18-14.95-7.26,14.89-16.19,2.59,11.38,11.64-2.62,15.99,14.68-7.63ZM112.25,160.11l14.46,7.48-2.84-15.97,11.71-11.77-16.2-2.31-7.36-14.78-7.18,14.77-16.06,2.31,11.53,11.65-2.83,16.07,14.76-7.46ZM385.66,160.07l14.42,7.51-2.73-16.06,11.56-11.63-16.29-2.38-7.13-14.73-7.27,14.71-16.04,2.35,11.49,11.67-2.8,16.03,14.8-7.47ZM72.08,260l14.65,7.64-2.97-16.02,11.8-11.77-16.38-2.45-7.21-14.8-7.29,14.79-16.37,2.44,11.9,11.67-3,16.27,14.87-7.76ZM425.9,260.07l14.42,7.48-2.73-16.14,11.85-11.54-16.44-2.45-7.3-14.71-7.28,14.76-16.25,2.32,11.82,11.79-2.94,16.1,14.85-7.61Z"/>
      <path d="M256.54,308.61c1.64,13.63,5.9,26,12.28,37.78l11.92,18.88h-118.97c-20.08-30.72-26.29-65.32-10.87-99.75-8.5.67-17.52,7.25-24.89,11.75,1.86-7.27,4.74-13.68,8.61-19.93,15-24.22,37.38-40.77,60.77-56.93-3.15-.53-5.97-.43-8.99-.28l-15.28,2.7c24-25.04,57.99-37.05,92.09-33.53,5.08.52,9.56,1.61,14.56,2.97,2.8-5.46,6.59-10.12,11.28-14.18,6.43-5.56,13.02-10.54,20.27-15.47-1.92,6.59-3.91,12.36-3.77,19.12,3.94-3.97,7.65-7.77,12.43-10.95-1.58,7.73-3.45,14.73-2.57,22.3l2.25,19.38c6.23,7.78,10.82,15.99,14.89,25.05,7.06,15.72,12.94,31.48,18.15,47.89l5.99,9c6.18,9.29,7.47,21.48,2.75,31.79-4.33,9.44-19.88,14.07-29.1,9.83-5.01-2.31-7.64-7.35-9.11-12.47l-1.64-5.7c-7.07-.98-13.05-3.36-19-7.26-10.15-6.65-18.71-15.23-25.24-25.61-15.73,8.72-20.84,25.97-18.82,43.6Z"/>
      <polygon class="cls-1" points="247.02 83.37 232.34 91.01 234.96 75.02 223.58 63.38 239.77 60.79 247.02 45.89 254.2 60.84 270.58 63.31 259 74.96 261.59 91.05 247.02 83.37"/>
      <polygon class="cls-1" points="72.08 260 57.21 267.76 60.21 251.5 48.32 239.83 64.69 237.39 71.98 222.6 79.18 237.4 95.57 239.85 83.77 251.62 86.74 267.64 72.08 260"/>
      <polygon class="cls-1" points="425.9 260.07 411.05 267.68 413.98 251.58 402.17 239.79 418.42 237.47 425.7 222.71 432.99 237.42 449.44 239.87 437.59 251.41 440.32 267.55 425.9 260.07"/>
      <polygon class="cls-1" points="112.25 160.11 97.48 167.57 100.31 151.49 88.78 139.84 104.85 137.53 112.02 122.76 119.38 137.54 135.58 139.85 123.87 151.62 126.71 167.59 112.25 160.11"/>
      <polygon class="cls-1" points="385.66 160.07 370.86 167.54 373.66 151.51 362.18 139.84 378.22 137.49 385.49 122.79 392.62 137.52 408.91 139.9 397.35 151.53 400.08 167.59 385.66 160.07"/>
    </g>
  </g>
</svg>